<svg 
    role="img" 
    xmlns="http://www.w3.org/2000/svg" 
    width="24" 
    height="24" 
    viewBox="0 0 24 24" 
    fill="#4CAF50">
    <title>Facebook</title>
    <path d="M22.675 0H1.325C.593 0 0 .593 0 1.326v21.348C0 23.407.593 24 1.325 24h11.494V14.706h-3.13v-3.624h3.13V8.41c0-3.1 1.894-4.79 4.66-4.79 1.325 0 2.464.099 2.797.144v3.24l-1.92.001c-1.505 0-1.797.715-1.797 1.765v2.312h3.59l-.467 3.624h-3.123V24h6.125C23.407 24 24 23.407 24 22.674V1.326C24 .593 23.407 0 22.675 0z"/>
</svg>
