<svg 
    role="img" 
    xmlns="http://www.w3.org/2000/svg" 
    width="24" 
    height="24" 
    viewBox="0 0 24 24" 
    fill="#4CAF50">
    <title>WhatsApp</title>
    <path d="M17.472 14.382c-.297-.15-1.758-.867-2.031-.966-.273-.099-.471-.15-.669.15-.198.297-.765.966-.939 1.164-.173.198-.347.223-.644.075-.297-.149-1.255-.462-2.39-1.472-.882-.786-1.48-1.758-1.655-2.055-.173-.297-.018-.458.132-.603.136-.136.298-.347.447-.52.149-.173.198-.298.298-.496.1-.198.05-.372-.025-.52-.075-.149-.669-1.612-.916-2.207-.242-.579-.487-.5-.669-.51h-.571c-.198 0-.52.074-.792.372-.273.298-1.04 1.016-1.04 2.48s1.064 2.88 1.213 3.078c.149.198 2.097 3.2 5.083 4.49.71.306 1.265.49 1.699.628.713.226 1.36.194 1.872.118.571-.085 1.758-.719 2.006-1.412.248-.694.248-1.289.173-1.412-.074-.124-.273-.198-.571-.347zM12.004 2C6.488 2 2 6.268 2 11.52c0 1.982.595 3.833 1.615 5.402L2 22l5.273-1.502a10.26 10.26 0 0 0 4.731 1.183c5.515 0 10.004-4.268 10.004-9.52C22 6.268 17.52 2 12.004 2z"/>
</svg>
